<?xml version="1.0" encoding="utf-8"?>
<!-- Generator: Adobe Illustrator 19.0.0, SVG Export Plug-In . SVG Version: 6.00 Build 0)  -->
<svg version="1.1" id="layer" xmlns="http://www.w3.org/2000/svg" xmlns:xlink="http://www.w3.org/1999/xlink" x="0px" y="0px"
	 viewBox="-153 -46 652 652" style="enable-background:new -153 -46 652 652;" xml:space="preserve">
<style type="text/css">
	.st0{clip-path:url(#SVGID_2_);}
	.st1{clip-path:url(#SVGID_4_);}
</style>
<path d="M67.7,144.9l36.6,175.3H51.4l-7.8-37.6h-63.8l-22.5,37.6h-58.5l24.3-37.6l-58.6-0.1l172.8-31.3L31.8,226l0,0l-4.6-22.6
	l-9.6,16l11.1,4.1h-67.4l50.8-78.5L67.7,144.9z M398.4,144.9H270.6c0.5,0.5,0.9,1.2,1.2,1.8c0.5,1.4,0.8,2.9,1,4.4
	c0.4,2.6,0.9,2.9,0.6,4.9c-0.6,3.8-1.3,3.4-2.4,5.7c-0.9,1.8-1.6,3.7-2.1,5.6c0,0.1,0,0.2,0.1,0.2c0,0,0,0,0.1,0
	c0.4,0,1.3,0.1,1.3,1.4c0.1,1.7-1.9,5-2.5,6c-0.6,1-1.8,2.9-2.9,3.5c-1.8,1.1-2.4,0.4-2.6,1s-2.1,4-2.4,4.9
	c-0.3,1.2-0.5,2.4-0.6,3.7c0,0.2,0.1,0.3,0.2,0.4c3.7,1.4,13.2,4.8,15.5,8.7l-32.3,10.5c4.5-0.5,9.5-1.1,13.9-1.7
	c6-0.7,15.7-1.8,18.9-1.7c2.7,0.1,5.4,0.5,8.1,1c3.8,0.5,7.1,0.6,11.2,1.5c2.2,0.3,4.3,1.3,6,2.8c0.2,0.1,1,0.8,1,0.8
	c5-0.4,12.7-0.8,14.3-1c0.8-0.1,2.5-0.2,2.9-0.2c15.5-2,24.1-9.4,31.5-13.9c8.2-5,20.6-9.1,29.4-9.3c11.4-0.3,19.6,1.7,25.1,6.6
	c5.5,4.9,7.6,11.6,5.4,21.5c-2.1,9.6-5.2,14-12.2,18.4s-14.9,5.8-24.1,5c-15.3-1.4-29.1-11-34.5-14.1c-4.7-2.7-11.1-5.5-18.3-6.2
	c-1.4-0.1-2.8-0.1-4.2,0c-0.5,0-6.3,0.4-10,0.7c0.3,0.9,0.4,1.8,0.5,2.7c-0.1,1.9-1.2,2.8-2.3,2.6c-1.2-0.1-3.7-2.1-4.5-3.7
	c-0.1-0.2-0.3-0.2-0.3,0c0,0.2,0,0.6,0,0.8c-0.1,0.5-0.4,2.1-1.5,2.4c-1.2,0.2-2.4-0.1-3.4-0.8c-0.3-0.2-0.6-0.1-0.8,0.1
	c0,0,0,0.1-0.1,0.1c-0.4,1.1-0.6,1.8-2.8,1.4c-1.5-0.2-1.2,0.4-2.1,0.6c-2.3,0.4-3.4-0.8-5.2-1.6c-1.8-0.8-1.2-2.6-3-2.9
	c-0.4-0.1-1-0.2-1.3-0.2c1.3,4.3,2.3,8.7,2.9,13.2c0,0.2-0.1,0.3-0.3,0.3c0,0,0,0,0,0l-1.9,0.2c-0.2,0-0.3,0.1-0.3,0.3c0,0,0,0,0,0
	c0.5,2.4,1.6,6.9,1.9,10.1c0.5,5.8,0.4,7.6,0,10.5c0,0.2,0.1,0.3,0.3,0.3c0,0,0.1,0,0.1,0c0.8-0.1,1.5-0.4,2.1-0.8
	c0.1-1.2,0.3-2.3,0.7-3.4c0.2-0.3,0.4-0.5,0.6-0.7c0.2-0.2,0.3-0.4,0.3-0.6l0.5-1.7c0.1-0.3,0.2-0.5,0.3-0.7l2.5-4.6
	c0,0,0.6-1.2,1.6-1c1,0.5,1.6,1.5,1.7,2.7c-0.1,1.4-0.6,2.7-1.2,3.9l1.1,1.7c1.3,0.3,2.7,0.1,3.8-0.7c0.6-0.4,1.1-0.8,1.6-1.2
	c-0.5-1.3,0.7-2.9,3.7-2.3c1.1,0.4,4.1,2.8,0.3,5.3c-0.1,0-0.1,0.1-0.1,0.2c0,0.1,0.1,0.1,0.2,0.1c4.1-0.3,3.6,4.7,0.8,6.2
	c-0.2,0.1-0.3,0.4-0.2,0.6c0,0,0,0,0,0.1c0.6,0.8,0.9,1.7,0.9,2.7c0,0,0,1.3-4,2.7c0,0-1.2,0.5-0.7,1.4c0.5,0.2,1,0.4,1.7,0.6
	c0,0,3.6,0.8,2.9,2.8c0,0-0.6,1.7-4,0.6c-1.1,0.1-2.2,0-3.3-0.1c-2.1,0.7-4.3,1.2-6.5,1.6c-0.7,0.1-1.4,0.5-1.8,1.1l0,0
	c-2.2,2.5-9,6-12,6.1c-3.3,0-3.8-2.6-6.2-5.1c-4.8-5-5.6-11.2-6.3-17.4c0-0.2-0.2-0.3-0.4-0.3c-0.2,0-0.3,0.1-0.3,0.3
	c-0.8,7.2-1.3,13.7-5.3,17.3c-2.4,2.2-6.3,3.9-12.5,5.4c-23.5,5.6-48.9,20-46,23.3c1.1,1.3,3.8-1.3,8.4-3.4
	c17.5-8.1,40.3-9.7,47.6-9.1c0.5,0,1,0.5,1,1c0.2,1.8,0.6,3.5,1.1,5.2c0.6,2.3,1.4,6.3,3.8,8.6c4.4,4.1,3.8,5.6,2.7,11.1
	c-0.7,3.6,4.2,6.6,4.4,6.7h50.6l7.6-37.4h51.4c52.5,0,75.8-24,84.8-69.9C467.2,191.3,467,144.9,398.4,144.9z M172.7,320.1
	c0.7-0.8,1.5-1.7,2.5-2.6c2.2-2.3,0.5-8,0.9-10.2c0.6-2.9,5.6-4.4,6.3-7.2c1.1-3.9-6.6-3.2-2.9-7.3c2.3-2.5,5.6-1.7,5.4-4.2
	c-0.4-4.1,3.6-6.8,5.3-8.1c7.3-5.5,23.6-14.2,33.5-17.1c10.4-3-3.9-2.7-15.7,1.6c-10.7,3.9,13.9-11.5,33.4-16.4
	c13.9-3.5-10.2-4.2-32.4,5.6c-7,3.1-11,5-13.8,6.8c-0.1,0-0.1,0-0.2,0c0,0,0-0.1,0-0.1c1.1-2.2,3.4-6.1,2.7-10.1
	c-0.5-2.5-0.2-5.2,0.9-7.5c0.8-1.6,0.3-5.8,1.3-8.1c0.1-0.2,0.3-0.2,0.5-0.2l11.9,3.7l46.6-15.9l-44.3,6.6L199,216.3
	c-2.2-2.3-4.4-11.4-2.2-14.8c2.3-3.5,5-6.8,8-9.8c2.1-1.8,8.5-2.6,11.6-4.2c3.5-1.8,6.3-0.6,8.9-1c2.7-0.7,5.4-1.5,8.1-2.5
	c0.1,0,0.1-0.1,0.1-0.2c0-1-0.1-2.1-0.3-3.1c-0.7-2.8-1-5.6-0.8-8.5c0.3-2.8,2.7-5.2,2.8-7c0.1-1.8-1.2-3.7-0.2-5.5
	c0.9-1.7,1.2-3,2.3-6.5c-0.3-2.1-1.6-2.8-0.6-5c0.5-1.1,1.4-2.7,1.7-3.5h-162l9.3,44.4h63.8l-7,34.1h48.1l-98.2,17.8l46.4-0.1
	l-16.2,79H172.7z M343.7,218.6c0.8,0.4,1.8,0,2.2-0.8c0.1-0.3,0.2-0.6,0.2-0.9c0.1-4.4,0.8-6.4,1.8-10c0.4-1.4-0.8-2.6-2-1.9
	c-7.1,3.9-12.4,5.5-15.5,6.2c-0.5,0.1-0.9,0.6-0.9,1.1c0,0.5,0.2,0.9,0.7,1.1C334.8,214.6,339.4,216.4,343.7,218.6z"/>
<g>
	<defs>
		<path id="SVGID_1_" d="M67.7,144.9l36.6,175.3H51.4l-7.8-37.6h-63.8l-22.5,37.6h-58.5l24.3-37.6l-58.6-0.1l172.8-31.3L31.8,226
			l0,0l-4.6-22.6l-9.6,16l11.1,4.1h-67.4l50.8-78.5L67.7,144.9z M398.4,144.9H270.6c0.5,0.5,0.9,1.2,1.2,1.8c0.5,1.4,0.8,2.9,1,4.4
			c0.4,2.6,0.9,2.9,0.6,4.9c-0.6,3.8-1.3,3.4-2.4,5.7c-0.9,1.8-1.6,3.7-2.1,5.6c0,0.1,0,0.2,0.1,0.2c0,0,0,0,0.1,0
			c0.4,0,1.3,0.1,1.3,1.4c0.1,1.7-1.9,5-2.5,6c-0.6,1-1.8,2.9-2.9,3.5c-1.8,1.1-2.4,0.4-2.6,1s-2.1,4-2.4,4.9
			c-0.3,1.2-0.5,2.4-0.6,3.7c0,0.2,0.1,0.3,0.2,0.4c3.7,1.4,13.2,4.8,15.5,8.7l-32.3,10.5c4.5-0.5,9.5-1.1,13.9-1.7
			c6-0.7,15.7-1.8,18.9-1.7c2.7,0.1,5.4,0.5,8.1,1c3.8,0.5,7.1,0.6,11.2,1.5c2.2,0.3,4.3,1.3,6,2.8c0.2,0.1,1,0.8,1,0.8
			c5-0.4,12.7-0.8,14.3-1c0.8-0.1,2.5-0.2,2.9-0.2c15.5-2,24.1-9.4,31.5-13.9c8.2-5,20.6-9.1,29.4-9.3c11.4-0.3,19.6,1.7,25.1,6.6
			c5.5,4.9,7.6,11.6,5.4,21.5c-2.1,9.6-5.2,14-12.2,18.4s-14.9,5.8-24.1,5c-15.3-1.4-29.1-11-34.5-14.1c-4.7-2.7-11.1-5.5-18.3-6.2
			c-1.4-0.1-2.8-0.1-4.2,0c-0.5,0-6.3,0.4-10,0.7c0.3,0.9,0.4,1.8,0.5,2.7c-0.1,1.9-1.2,2.8-2.3,2.6c-1.2-0.1-3.7-2.1-4.5-3.7
			c-0.1-0.2-0.3-0.2-0.3,0c0,0.2,0,0.6,0,0.8c-0.1,0.5-0.4,2.1-1.5,2.4c-1.2,0.2-2.4-0.1-3.4-0.8c-0.3-0.2-0.6-0.1-0.8,0.1
			c0,0,0,0.1-0.1,0.1c-0.4,1.1-0.6,1.8-2.8,1.4c-1.5-0.2-1.2,0.4-2.1,0.6c-2.3,0.4-3.4-0.8-5.2-1.6c-1.8-0.8-1.2-2.6-3-2.9
			c-0.4-0.1-1-0.2-1.3-0.2c1.3,4.3,2.3,8.7,2.9,13.2c0,0.2-0.1,0.3-0.3,0.3c0,0,0,0,0,0l-1.9,0.2c-0.2,0-0.3,0.1-0.3,0.3
			c0,0,0,0,0,0c0.5,2.4,1.6,6.9,1.9,10.1c0.5,5.8,0.4,7.6,0,10.5c0,0.2,0.1,0.3,0.3,0.3c0,0,0.1,0,0.1,0c0.8-0.1,1.5-0.4,2.1-0.8
			c0.1-1.2,0.3-2.3,0.7-3.4c0.2-0.3,0.4-0.5,0.6-0.7c0.2-0.2,0.3-0.4,0.3-0.6l0.5-1.7c0.1-0.3,0.2-0.5,0.3-0.7l2.5-4.6
			c0,0,0.6-1.2,1.6-1c1,0.5,1.6,1.5,1.7,2.7c-0.1,1.4-0.6,2.7-1.2,3.9l1.1,1.7c1.3,0.3,2.7,0.1,3.8-0.7c0.6-0.4,1.1-0.8,1.6-1.2
			c-0.5-1.3,0.7-2.9,3.7-2.3c1.1,0.4,4.1,2.8,0.3,5.3c-0.1,0-0.1,0.1-0.1,0.2c0,0.1,0.1,0.1,0.2,0.1c4.1-0.3,3.6,4.7,0.8,6.2
			c-0.2,0.1-0.3,0.4-0.2,0.6c0,0,0,0,0,0.1c0.6,0.8,0.9,1.7,0.9,2.7c0,0,0,1.3-4,2.7c0,0-1.2,0.5-0.7,1.4c0.5,0.2,1,0.4,1.7,0.6
			c0,0,3.6,0.8,2.9,2.8c0,0-0.6,1.7-4,0.6c-1.1,0.1-2.2,0-3.3-0.1c-2.1,0.7-4.3,1.2-6.5,1.6c-0.7,0.1-1.4,0.5-1.8,1.1l0,0
			c-2.2,2.5-9,6-12,6.1c-3.3,0-3.8-2.6-6.2-5.1c-4.8-5-5.6-11.2-6.3-17.4c0-0.2-0.2-0.3-0.4-0.3c-0.2,0-0.3,0.1-0.3,0.3
			c-0.8,7.2-1.3,13.7-5.3,17.3c-2.4,2.2-6.3,3.9-12.5,5.4c-23.5,5.6-48.9,20-46,23.3c1.1,1.3,3.8-1.3,8.4-3.4
			c17.5-8.1,40.3-9.7,47.6-9.1c0.5,0,1,0.5,1,1c0.2,1.8,0.6,3.5,1.1,5.2c0.6,2.3,1.4,6.3,3.8,8.6c4.4,4.1,3.8,5.6,2.7,11.1
			c-0.7,3.6,4.2,6.6,4.4,6.7h50.6l7.6-37.4h51.4c52.5,0,75.8-24,84.8-69.9C467.2,191.3,467,144.9,398.4,144.9z M172.7,320.1
			c0.7-0.8,1.5-1.7,2.5-2.6c2.2-2.3,0.5-8,0.9-10.2c0.6-2.9,5.6-4.4,6.3-7.2c1.1-3.9-6.6-3.2-2.9-7.3c2.3-2.5,5.6-1.7,5.4-4.2
			c-0.4-4.1,3.6-6.8,5.3-8.1c7.3-5.5,23.6-14.2,33.5-17.1c10.4-3-3.9-2.7-15.7,1.6c-10.7,3.9,13.9-11.5,33.4-16.4
			c13.9-3.5-10.2-4.2-32.4,5.6c-7,3.1-11,5-13.8,6.8c-0.1,0-0.1,0-0.2,0c0,0,0-0.1,0-0.1c1.1-2.2,3.4-6.1,2.7-10.1
			c-0.5-2.5-0.2-5.2,0.9-7.5c0.8-1.6,0.3-5.8,1.3-8.1c0.1-0.2,0.3-0.2,0.5-0.2l11.9,3.7l46.6-15.9l-44.3,6.6L199,216.3
			c-2.2-2.3-4.4-11.4-2.2-14.8c2.3-3.5,5-6.8,8-9.8c2.1-1.8,8.5-2.6,11.6-4.2c3.5-1.8,6.3-0.6,8.9-1c2.7-0.7,5.4-1.5,8.1-2.5
			c0.1,0,0.1-0.1,0.1-0.2c0-1-0.1-2.1-0.3-3.1c-0.7-2.8-1-5.6-0.8-8.5c0.3-2.8,2.7-5.2,2.8-7c0.1-1.8-1.2-3.7-0.2-5.5
			c0.9-1.7,1.2-3,2.3-6.5c-0.3-2.1-1.6-2.8-0.6-5c0.5-1.1,1.4-2.7,1.7-3.5h-162l9.3,44.4h63.8l-7,34.1h48.1l-98.2,17.8l46.4-0.1
			l-16.2,79H172.7z M343.7,218.6c0.8,0.4,1.8,0,2.2-0.8c0.1-0.3,0.2-0.6,0.2-0.9c0.1-4.4,0.8-6.4,1.8-10c0.4-1.4-0.8-2.6-2-1.9
			c-7.1,3.9-12.4,5.5-15.5,6.2c-0.5,0.1-0.9,0.6-0.9,1.1c0,0.5,0.2,0.9,0.7,1.1C334.8,214.6,339.4,216.4,343.7,218.6z"/>
	</defs>
	<clipPath id="SVGID_2_">
		<use xlink:href="#SVGID_1_"  style="overflow:visible;"/>
	</clipPath>
	<g class="st0">
		<rect x="-142.6" y="127.3" width="621.2" height="192.8"/>
	</g>
</g>
<path d="M145.8,349.8h-29.5l2.9-14h75.5l-3.1,14h-29.5l-15.6,74.9h-16.5L145.8,349.8z"/>
<path d="M288.1,395.5c0.1-3.2,0.4-6.4,1.1-9.5l10.5-50.2h16.5l-10.5,49.9c-0.5,2.6-0.9,5.2-1,7.9c-0.1,12.1,8.1,17.9,20.7,17.9
	c14.1,0,23.8-7.7,27.7-25.9l10.4-49.8h16.3l-10.6,50.9c-5.5,26.2-21.6,39.2-45.5,39.2C301.8,426,287.9,414.3,288.1,395.5z"/>
<path d="M438.1,396.5l15.6,28.2h-17.5l-14.4-26.1h-24.3l-5.3,26h-16.6l18.6-88.9h36.7c21.5,0,33.7,9.9,33.5,26.8
	C464.3,379.9,454.5,392,438.1,396.5z M447.8,364.1c0.1-9.7-6.7-14.4-18.8-14.4h-21.1l-7.5,35.3h21.9
	C438.3,385.1,447.6,377.8,447.8,364.1z"/>
<path d="M279.2,380.2c-0.9,6-2.7,11.8-5.3,17.3c-2.9,6-6.9,11.3-11.8,15.7c-4.9,4.4-10.7,7.7-16.9,9.8c-5.7,1.9-11.7,2.9-17.7,2.9
	c-5.8,0.1-11.5-0.9-16.9-2.9c-5.5-2-10.3-5.4-14.1-9.8c-3.7-4.5-6.2-9.9-7.3-15.7c-1-5.7-1.1-11.6-0.2-17.3c0.9-6,2.6-11.8,5.2-17.3
	c2.9-6,6.9-11.3,11.9-15.7c4.9-4.4,10.7-7.7,16.9-9.8c5.7-1.9,11.7-2.9,17.7-2.8c5.8-0.1,11.5,0.9,17,2.9c5.5,2,10.3,5.3,14.1,9.8
	c3.7,4.5,6.2,9.9,7.3,15.7C280,368.6,280,374.4,279.2,380.2z M262.8,380.2c1.2-8.7,0.4-16.8-3.8-22.5c-2.2-2.9-5.1-5.2-8.5-6.6
	c-3.8-1.5-7.8-2.3-11.9-2.2c-4.3,0-8.5,0.7-12.5,2.2c-3.9,1.5-7.4,3.8-10.4,6.7c-5.8,5.7-9,13.8-10.3,22.5
	c-1.2,8.6-0.4,16.8,3.8,22.4c2.2,2.9,5.1,5.2,8.5,6.6c3.8,1.5,7.8,2.3,11.9,2.2c4.3,0,8.5-0.7,12.5-2.2c3.9-1.5,7.4-3.7,10.4-6.6
	C258.3,397,261.4,388.8,262.8,380.2L262.8,380.2z"/>
<path d="M443.6,312.8h-2.9l0.4-1.7h7.9l-0.4,1.7h-2.9l-1.5,7.4h-2.1L443.6,312.8z M460.2,311.1l-1.8,9h-2l1.1-5.4l-3.4,4.4h-0.9
	l-1.8-4.5l-1.1,5.4h-2l1.8-9h1.7l2.3,5.6l4.4-5.6L460.2,311.1z"/>
<g>
	<defs>
		<path id="SVGID_3_" d="M443.6,312.8h-2.9l0.4-1.7h7.9l-0.4,1.7h-2.9l-1.5,7.4h-2.1L443.6,312.8z M460.2,311.1l-1.8,9h-2l1.1-5.4
			l-3.4,4.4h-0.9l-1.8-4.5l-1.1,5.4h-2l1.8-9h1.7l2.3,5.6l4.4-5.6L460.2,311.1z"/>
	</defs>
	<clipPath id="SVGID_4_">
		<use xlink:href="#SVGID_3_"  style="overflow:visible;"/>
	</clipPath>
	<g class="st1">
		<rect x="434.4" y="305.1" width="26.6" height="17.8"/>
	</g>
</g>
</svg>
